<?xml version="1.0" encoding="UTF-8"?>
<svg width="16px" height="16px" viewBox="0 0 16 16" version="1.1" xmlns="http://www.w3.org/2000/svg" xmlns:xlink="http://www.w3.org/1999/xlink">
    <title>icon/attention</title>
    <g id="icon/attention" stroke="none" stroke-width="1" fill="none" fill-rule="evenodd">
        <path d="M8,2.16666666 C11.2165,2.16666666 13.8333333,4.7835 13.8333333,8 C13.8333333,11.2165 11.2165,13.8333333 8,13.8333333 C4.7835,13.8333333 2.16666666,11.2165 2.16666666,8 C2.16666666,4.7835 4.7835,2.16666666 8,2.16666666 Z M8,1 C4.13425,1 1,4.13425 1,8 C1,11.86575 4.13425,15 8,15 C11.86575,15 15,11.86575 15,8 C15,4.13425 11.86575,1 8,1 Z M7.41666666,4.5 L8.58333334,4.5 L8.58333334,9.16666666 L7.41666666,9.16666666 L7.41666666,4.5 Z M8,11.6458333 C7.59729237,11.6458333 7.27083333,11.3193743 7.27083333,10.9166667 C7.27083333,10.513959 7.59729237,10.1875 8,10.1875 C8.40270763,10.1875 8.72916667,10.513959 8.72916667,10.9166667 C8.72916667,11.3193743 8.40270763,11.6458333 8,11.6458333 Z" id="形状" fill="#EB7B49"></path>
    </g>
</svg>