<?xml version="1.0" encoding="UTF-8"?>
<svg width="16px" height="16px" viewBox="0 0 16 16" version="1.1" xmlns="http://www.w3.org/2000/svg" xmlns:xlink="http://www.w3.org/1999/xlink">
    <title>icon/call</title>
    <g id="icon/call" stroke="none" stroke-width="1" fill="none" fill-rule="evenodd">
        <path d="M8,1 C11.8660417,1 15,4.13395834 15,8 C15,11.8660417 11.8660417,15 8,15 C4.13395834,15 1,11.8660417 1,8 C1,4.13395834 4.13395834,1 8,1 Z M6.51454166,3.80495834 C6.18,3.74808334 5.89795832,3.862125 5.45783334,4.147375 L5.33241666,4.22875 L5.21779166,4.30079166 C4.346875,4.83920832 4.71466666,7.05704166 6.135375,9.13720834 C7.55229166,11.2118333 9.52279166,12.42575 10.3820417,11.8955 C10.4365833,11.86225 10.6492083,11.738 10.6734167,11.7234167 C11.0426667,11.5037917 11.2500417,11.3252917 11.357375,11.0665833 C11.5020417,10.7206667 11.3912083,10.3324583 11.017,9.89495834 C10.4117917,9.187375 9.95358334,9.02025 9.43529166,9.25679166 C9.35357466,9.29439939 9.27428195,9.33706549 9.197875,9.38454166 L8.968625,9.52658334 C8.7945,9.63391668 8.2625,9.12466668 7.62520834,8.19395834 C6.99666668,7.27375 6.72658334,6.611375 6.88583334,6.5125 C6.90129168,6.502875 7.06783334,6.40195834 7.11479166,6.37191666 C7.766375,5.962125 7.87779166,5.510625 7.37145834,4.55891666 C7.13229168,4.10916666 6.84820834,3.862125 6.51454166,3.80495834 L6.51454166,3.80495834 Z" id="形状" fill="#FFCA06" fill-rule="nonzero"></path>
    </g>
</svg>