<?xml version="1.0" encoding="UTF-8"?>
<svg width="16px" height="16px" viewBox="0 0 16 16" version="1.1" xmlns="http://www.w3.org/2000/svg" xmlns:xlink="http://www.w3.org/1999/xlink">
    <title>icon/close_y</title>
    <g id="icon/close_y" stroke="none" stroke-width="1" fill="none" fill-rule="evenodd">
        <path d="M8,1 C8.55228475,1 9,1.44771525 9,2 L9,7 L14,7 C14.5522847,7 15,7.44771525 15,8 C15,8.55228475 14.5522847,9 14,9 L9,9 L9,14 C9,14.5522847 8.55228475,15 8,15 C7.44771525,15 7,14.5522847 7,14 L7,9 L2,9 C1.44771525,9 1,8.55228475 1,8 C1,7.44771525 1.44771525,7 2,7 L7,7 L7,2 C7,1.44771525 7.44771525,1 8,1 Z" id="形状结合" fill="#F5A623" fill-rule="nonzero" transform="translate(8.000000, 8.000000) rotate(45.000000) translate(-8.000000, -8.000000) "></path>
    </g>
</svg>