<?xml version="1.0" encoding="UTF-8"?>
<svg width="13px" height="13px" viewBox="0 0 13 13" version="1.1" xmlns="http://www.w3.org/2000/svg" xmlns:xlink="http://www.w3.org/1999/xlink">
    <title>路径</title>
    <g id="symbol" stroke="none" stroke-width="1" fill="none" fill-rule="evenodd">
        <g id="筛选" transform="translate(-6.000000, -6.000000)" fill="#000000" fill-rule="nonzero">
            <g id="shaixuan-2" transform="translate(6.500000, 6.500000)">
                <path d="M12.2182617,0.9140625 C11.9897461,0.358886719 11.4316406,0.00146484375 10.800293,0.00146484375 L1.53369141,0.00146484375 C0.903808594,0.00146484375 0.347167969,0.357421875 0.1171875,0.909667969 C-0.099609375,1.42529297 0.0161132812,1.99951172 0.418945313,2.40673828 L3.54638672,5.57666016 L3.54785156,5.578125 L4.09130859,6.12890625 C4.24804688,6.28857422 4.33886719,6.515625 4.33886719,6.75 L4.34179688,9.20947266 C4.34179688,9.48193359 4.56298828,9.703125 4.83691406,9.703125 C5.109375,9.703125 5.33203125,9.48046875 5.33056641,9.20800781 L5.32763672,6.74707031 C5.32763672,6.25488281 5.13134766,5.77587891 4.79296875,5.43164063 L1.97460938,2.57373047 L1.97021484,2.56933594 L1.12060547,1.70800781 C0.958007813,1.54248047 0.991699219,1.37255859 1.02832031,1.28613281 C1.08984375,1.14111328 1.25390625,0.984375 1.53222656,0.984375 L10.7973633,0.984375 C11.0771484,0.984375 11.2412109,1.13964844 11.2998047,1.28613281 C11.3334961,1.37109375 11.3686523,1.53662109 11.1972656,1.70654297 L8.23242188,4.79003906 C8.20898438,4.81494141 8.18701172,4.84130859 8.16796875,4.87207031 L7.62744141,5.43603516 C7.2890625,5.77880859 7.09423828,6.25927734 7.09277344,6.75146484 L7.08691406,11.4990234 C7.08691406,11.7714844 7.30810547,11.9941406 7.58056641,11.9941406 C7.85302734,11.9941406 8.07421875,11.7729492 8.07568359,11.5004883 L8.08154297,6.75292969 C8.08154297,6.51708984 8.17236328,6.29003906 8.33496094,6.12597656 L11.1474609,3.19042969 L11.9047852,2.40527344 C12.3134766,2.00244141 12.4321289,1.4296875 12.2182617,0.9140625 Z" id="路径"></path>
            </g>
        </g>
    </g>
</svg>