<?xml version="1.0" encoding="UTF-8"?>
<svg width="16px" height="16px" viewBox="0 0 16 16" version="1.1" xmlns="http://www.w3.org/2000/svg" xmlns:xlink="http://www.w3.org/1999/xlink">
    <title>icon/search备份</title>
    <g id="icon/search备份" stroke="none" stroke-width="1" fill="none" fill-rule="evenodd">
        <path d="M8.74679849,10.4650733 C8.23355348,10.6823655 7.68831749,10.7916761 7.12575709,10.7916761 C6.5631846,10.7916761 6.01794861,10.6810245 5.50471569,10.4650733 C5.00880718,10.2557788 4.56355509,9.95449823 4.17961501,9.57189916 C3.79701595,9.1893001 3.49573534,8.74271907 3.28644088,8.24679849 C3.06914868,7.73355348 2.95982603,7.18831749 2.95982603,6.62575709 C2.95982603,6.0631846 3.07047761,5.51794861 3.28644088,5.00471569 C3.49573534,4.50880718 3.79701595,4.06355509 4.17961501,3.67961501 C4.56221408,3.29701595 5.00880718,2.99573534 5.50471569,2.78644088 C6.0179607,2.56914868 6.56319668,2.45983811 7.12575709,2.45983811 C7.68831749,2.45983811 8.23355348,2.57047761 8.74679849,2.78644088 C9.24270699,2.99573534 9.68797117,3.29701595 10.0718992,3.67961501 C10.4544982,4.06221408 10.7557788,4.50746617 10.9650733,5.00471569 C11.1823655,5.5179607 11.2916761,6.06319668 11.2916761,6.62575709 C11.2916761,7.18831749 11.1810366,7.73355348 10.9650733,8.24679849 C10.7557788,8.74270699 10.4544982,9.18797117 10.0718992,9.57189916 C9.68797117,9.95449823 9.24270699,10.2544499 8.74679849,10.4650733 Z M13.8338958,12.590033 L11.102388,9.85984214 C11.8209286,8.9773357 12.2515142,7.8522028 12.2515142,6.62575709 C12.2515142,3.79425338 9.95724871,1.5 7.12575709,1.5 C4.29426546,1.5 2,3.79425338 2,6.62575709 C2,9.45724871 4.29425338,11.7515142 7.12575709,11.7515142 C8.346875,11.7515142 9.46800902,11.3249275 10.3478576,10.6117147 L13.0793774,13.3432345 C13.1833602,13.4472173 13.3193339,13.4992026 13.4566366,13.4992026 C13.5926103,13.4992026 13.729913,13.4472173 13.8339079,13.3432345 C14.0418613,13.135269 14.0418613,12.7979865 13.8338958,12.590033 L13.8338958,12.590033 Z" id="形状" fill="#111111" fill-rule="nonzero"></path>
    </g>
</svg>