<?xml version="1.0" encoding="UTF-8"?>
<svg width="56px" height="60px" viewBox="0 0 56 60" version="1.1" xmlns="http://www.w3.org/2000/svg" xmlns:xlink="http://www.w3.org/1999/xlink">
    <title>形状</title>
    <g id="第八版方案-切图" stroke="none" stroke-width="1" fill="none" fill-rule="evenodd" fill-opacity="0.0642209353">
        <g id="收派端_1" transform="translate(-16.000000, -367.000000)" fill="#F5A623" fill-rule="nonzero">
            <g id="超高频备份-5" transform="translate(16.000000, 364.000000)">
                <path d="M36.4429086,3 C31.2309747,3 26.5081783,5.03755647 23.0020284,8.33688742 C19.4958784,5.03755647 14.7730821,3 9.56114821,3 C-1.24089794,3 -10,11.7015198 -10,22.4323868 C-10,42.5304013 23.0020284,63 23.0020284,63 C23.0020284,63 56,42.5304013 56,22.4323868 C56,11.7015198 47.2449547,3 36.4429086,3 M23.3323906,52 C23.3323906,52 -1,36.8054539 -1,23.8741808 C-1,15.4939 3.4469921,11.2039226 11.5192258,11.2039226 C14.8926369,11.2039226 21.0613886,14.7069048 23.3323906,16.831546 C25.5992419,14.7069049 31.8341019,11 35.207513,11 C42.1979398,11 47,15.5958614 47,24.2820261 C47,37.2132247 23.3323906,52 23.3323906,52" id="形状"></path>
            </g>
        </g>
    </g>
</svg>