<?xml version="1.0" encoding="UTF-8"?>
<svg width="56px" height="55px" viewBox="0 0 56 55" version="1.1" xmlns="http://www.w3.org/2000/svg" xmlns:xlink="http://www.w3.org/1999/xlink">
    <title>形状</title>
    <g id="第八版方案-切图" stroke="none" stroke-width="1" fill="none" fill-rule="evenodd" fill-opacity="0.0642209353">
        <g id="收派端_1" transform="translate(-16.000000, -470.000000)" fill="#F5A623" fill-rule="nonzero">
            <g id="超高频备份-6" transform="translate(16.000000, 470.000000)">
                <path d="M55.1296863,45.8316151 C57.5168324,49.8178694 54.7318286,55 49.9575363,55 L-2.95753634,55 C-7.73182862,55 -10.5168324,49.8178694 -8.1296863,45.8316151 C0.623182862,30.6838488 9.37605203,15.137457 18.5267789,-0.0103092784 C20.913925,-3.99656357 26.4839327,-3.99656357 28.8710788,-0.0103092784 C37.623948,15.137457 46.3768171,30.6838488 55.1296863,45.8316151 Z M46.4432131,45.0624609 C36.8666867,27.0170001 29.7076052,13.995424 24.9659687,5.99773243 C24.3144271,4.66742252 22.6855729,4.66742252 22.0340313,5.99773243 C17.5034476,13.9867928 10.0656522,26.9888999 -0.279355158,45.0040538 C-0.829398552,45.9619269 -0.498791931,47.184336 0.459079067,47.7343831 C0.762152073,47.9084195 1.1055393,48 1.45502737,48 L44.6765677,48 C45.7811394,48.0000038 46.6765716,47.1045716 46.6765716,46 C46.6765716,45.6731125 46.5964477,45.3512075 46.4432131,45.0624609 Z M23.5,39 C25.4444444,39 27,40.5555556 27,42.5 C27,44.4444444 25.4444444,46 23.5,46 C21.5555556,46 20,44.4444444 20,42.5 C20,40.5555556 21.5555556,39 23.5,39 Z M27,14.7344398 C26.5882353,20.9585062 26.1764706,27.5975104 25.7647059,33.8215768 C25.7647059,36.7261411 21.6470588,36.7261411 21.2352941,33.8215768 C20.8235294,27.5975104 20.4117647,21.373444 20,14.7344398 C20,12.659751 21.6470588,11 23.7058824,11 C25.3529412,11.4149378 27,12.659751 27,14.7344398 Z" id="形状"></path>
            </g>
        </g>
    </g>
</svg>